<mxfile host="app.diagrams.net" agent="Mozilla/5.0 (Windows NT 10.0; Win64; x64) AppleWebKit/537.36 (KHTML, like Gecko) Chrome/135.0.0.0 Safari/537.36" version="26.2.10">
  <diagram name="Page-1" id="gANbD3ugPw2GVt8M3oUS">
    <mxGraphModel dx="1428" dy="743" grid="1" gridSize="10" guides="1" tooltips="1" connect="1" arrows="1" fold="1" page="1" pageScale="1" pageWidth="827" pageHeight="1169" math="0" shadow="0">
      <root>
        <mxCell id="0" />
        <mxCell id="1" parent="0" />
        <mxCell id="Dtx_p930oGNhUYAJZjLW-23" style="edgeStyle=orthogonalEdgeStyle;rounded=0;orthogonalLoop=1;jettySize=auto;html=1;exitX=0.5;exitY=1;exitDx=0;exitDy=0;entryX=0.5;entryY=0;entryDx=0;entryDy=0;fillColor=#f8cecc;strokeColor=#b85450;" edge="1" parent="1" source="Dtx_p930oGNhUYAJZjLW-1" target="Dtx_p930oGNhUYAJZjLW-14">
          <mxGeometry relative="1" as="geometry" />
        </mxCell>
        <mxCell id="Dtx_p930oGNhUYAJZjLW-1" value="we want to detect MPA effects &lt;b&gt;(Ngari Capes management plan)&lt;/b&gt;" style="rounded=0;whiteSpace=wrap;html=1;fillColor=#f8cecc;strokeColor=#b85450;" vertex="1" parent="1">
          <mxGeometry x="40" y="40" width="150" height="60" as="geometry" />
        </mxCell>
        <mxCell id="Dtx_p930oGNhUYAJZjLW-4" value="impossible to do a full inventory as monitoring &lt;b&gt;(Bianchi 2022)&lt;/b&gt;" style="rounded=0;whiteSpace=wrap;html=1;" vertex="1" parent="1">
          <mxGeometry x="200" y="440" width="190" height="60" as="geometry" />
        </mxCell>
        <mxCell id="Dtx_p930oGNhUYAJZjLW-6" value="let&#39;s use a couple metrics that are consistent in reporting MPA effects &lt;b&gt;(soykan 2015)&lt;/b&gt;" style="rounded=0;whiteSpace=wrap;html=1;" vertex="1" parent="1">
          <mxGeometry x="223" y="110" width="197" height="60" as="geometry" />
        </mxCell>
        <mxCell id="Dtx_p930oGNhUYAJZjLW-7" value="BRUVs are good to characterise a variety of things!" style="rounded=0;whiteSpace=wrap;html=1;" vertex="1" parent="1">
          <mxGeometry x="470" y="70" width="120" height="60" as="geometry" />
        </mxCell>
        <mxCell id="Dtx_p930oGNhUYAJZjLW-10" value="assessing MPA effects requires adequate sampling design (BACI-type) &lt;b&gt;(Guidetti 2002)&lt;/b&gt;" style="rounded=0;whiteSpace=wrap;html=1;" vertex="1" parent="1">
          <mxGeometry x="330" y="270" width="180" height="70" as="geometry" />
        </mxCell>
        <mxCell id="Dtx_p930oGNhUYAJZjLW-11" value="perhaps no effect of protection on seagrass community, but a stability over time &lt;b&gt;(Alonso Aller 2017)&lt;/b&gt;" style="rounded=0;whiteSpace=wrap;html=1;" vertex="1" parent="1">
          <mxGeometry x="330" y="200" width="210" height="60" as="geometry" />
        </mxCell>
        <mxCell id="Dtx_p930oGNhUYAJZjLW-12" value="assessing PA effects requires a good choice of controls &lt;b&gt;(Negret 2020)&lt;/b&gt;" style="rounded=0;whiteSpace=wrap;html=1;" vertex="1" parent="1">
          <mxGeometry x="540" y="270" width="120" height="60" as="geometry" />
        </mxCell>
        <mxCell id="Dtx_p930oGNhUYAJZjLW-13" value="what are we expecting in East Geographe" style="swimlane;whiteSpace=wrap;html=1;" vertex="1" parent="1">
          <mxGeometry x="680" y="30" width="320" height="200" as="geometry" />
        </mxCell>
        <mxCell id="Dtx_p930oGNhUYAJZjLW-33" value="stability over time (can&#39;t study that here)" style="whiteSpace=wrap;html=1;" vertex="1" parent="Dtx_p930oGNhUYAJZjLW-13">
          <mxGeometry x="7" y="30" width="140" height="40" as="geometry" />
        </mxCell>
        <mxCell id="Dtx_p930oGNhUYAJZjLW-34" value="more evenness (fewer dominant spp in NTZ)" style="whiteSpace=wrap;html=1;" vertex="1" parent="Dtx_p930oGNhUYAJZjLW-13">
          <mxGeometry x="7" y="90" width="120" height="60" as="geometry" />
        </mxCell>
        <mxCell id="Dtx_p930oGNhUYAJZjLW-14" value="what should monitoring achieve" style="swimlane;whiteSpace=wrap;html=1;startSize=30;" vertex="1" parent="1">
          <mxGeometry x="40" y="160" width="140" height="250" as="geometry" />
        </mxCell>
        <mxCell id="Dtx_p930oGNhUYAJZjLW-15" value="correct characterisation of MPA &lt;b&gt;effects&lt;/b&gt;" style="rounded=1;whiteSpace=wrap;html=1;fillColor=#dae8fc;strokeColor=#6c8ebf;" vertex="1" parent="Dtx_p930oGNhUYAJZjLW-14">
          <mxGeometry x="10" y="40" width="120" height="60" as="geometry" />
        </mxCell>
        <mxCell id="Dtx_p930oGNhUYAJZjLW-16" value="achievable and practical relative to the MPA&#39;s goals" style="rounded=1;whiteSpace=wrap;html=1;fillColor=#dae8fc;strokeColor=#6c8ebf;" vertex="1" parent="Dtx_p930oGNhUYAJZjLW-14">
          <mxGeometry x="10" y="180" width="120" height="60" as="geometry" />
        </mxCell>
        <mxCell id="Dtx_p930oGNhUYAJZjLW-28" style="edgeStyle=orthogonalEdgeStyle;rounded=0;orthogonalLoop=1;jettySize=auto;html=1;exitX=1;exitY=0.5;exitDx=0;exitDy=0;" edge="1" parent="Dtx_p930oGNhUYAJZjLW-14" source="Dtx_p930oGNhUYAJZjLW-26">
          <mxGeometry relative="1" as="geometry">
            <mxPoint x="210" y="280" as="targetPoint" />
          </mxGeometry>
        </mxCell>
        <mxCell id="Dtx_p930oGNhUYAJZjLW-26" value="not necessarily exactitude in metrics (we&#39;re not here for inventory)" style="rounded=1;whiteSpace=wrap;html=1;fillColor=#dae8fc;strokeColor=#6c8ebf;" vertex="1" parent="Dtx_p930oGNhUYAJZjLW-14">
          <mxGeometry x="10" y="110" width="120" height="60" as="geometry" />
        </mxCell>
        <mxCell id="Dtx_p930oGNhUYAJZjLW-27" style="edgeStyle=orthogonalEdgeStyle;rounded=0;orthogonalLoop=1;jettySize=auto;html=1;exitX=1;exitY=0.5;exitDx=0;exitDy=0;entryX=0.25;entryY=0;entryDx=0;entryDy=0;" edge="1" parent="1" source="Dtx_p930oGNhUYAJZjLW-16" target="Dtx_p930oGNhUYAJZjLW-4">
          <mxGeometry relative="1" as="geometry" />
        </mxCell>
        <mxCell id="Dtx_p930oGNhUYAJZjLW-29" style="edgeStyle=orthogonalEdgeStyle;rounded=0;orthogonalLoop=1;jettySize=auto;html=1;exitX=1;exitY=0.5;exitDx=0;exitDy=0;entryX=0.213;entryY=1.017;entryDx=0;entryDy=0;entryPerimeter=0;" edge="1" parent="1" source="Dtx_p930oGNhUYAJZjLW-15" target="Dtx_p930oGNhUYAJZjLW-6">
          <mxGeometry relative="1" as="geometry" />
        </mxCell>
        <mxCell id="Dtx_p930oGNhUYAJZjLW-30" style="edgeStyle=orthogonalEdgeStyle;rounded=0;orthogonalLoop=1;jettySize=auto;html=1;exitX=1;exitY=0.5;exitDx=0;exitDy=0;" edge="1" parent="1" source="Dtx_p930oGNhUYAJZjLW-26">
          <mxGeometry relative="1" as="geometry">
            <mxPoint x="280" y="170" as="targetPoint" />
          </mxGeometry>
        </mxCell>
        <mxCell id="Dtx_p930oGNhUYAJZjLW-31" style="edgeStyle=orthogonalEdgeStyle;rounded=0;orthogonalLoop=1;jettySize=auto;html=1;exitX=1;exitY=0.75;exitDx=0;exitDy=0;entryX=0;entryY=0.75;entryDx=0;entryDy=0;" edge="1" parent="1" source="Dtx_p930oGNhUYAJZjLW-15" target="Dtx_p930oGNhUYAJZjLW-11">
          <mxGeometry relative="1" as="geometry" />
        </mxCell>
      </root>
    </mxGraphModel>
  </diagram>
</mxfile>
